<svg xmlns="http://www.w3.org/2000/svg" xmlns:xlink="http://www.w3.org/1999/xlink" viewBox="0 0 242.18 69.19"><defs><style>.cls-1{fill:url(#linear-gradient);}.cls-2{fill:url(#linear-gradient-2);}.cls-3{fill:url(#linear-gradient-3);}.cls-4{fill:url(#linear-gradient-4);}.cls-5{fill:url(#linear-gradient-5);}.cls-6{fill:url(#linear-gradient-6);}.cls-7{fill:#0079b4;}.cls-8{fill:#0072aa;}</style><linearGradient id="linear-gradient" x1="-7.53" y1="46.01" x2="39.44" y2="-7.8" gradientUnits="userSpaceOnUse"><stop offset="0" stop-color="#00aee5"/><stop offset="0.33" stop-color="#1097d3"/><stop offset="1" stop-color="#375ca5"/></linearGradient><linearGradient id="linear-gradient-2" x1="34.59" y1="34.45" x2="57.66" y2="34.45" gradientUnits="userSpaceOnUse"><stop offset="0" stop-color="#00aee5"/><stop offset="0.24" stop-color="#02aae2"/><stop offset="0.45" stop-color="#0aa0da"/><stop offset="0.66" stop-color="#168dcc"/><stop offset="0.85" stop-color="#2774b8"/><stop offset="1" stop-color="#375ca5"/></linearGradient><linearGradient id="linear-gradient-3" x1="14.12" y1="34.59" x2="43.54" y2="34.59" gradientUnits="userSpaceOnUse"><stop offset="0" stop-color="#00aee5"/><stop offset="1" stop-color="#375ca5"/></linearGradient><linearGradient id="linear-gradient-4" x1="43.6" y1="19.72" x2="1.76" y2="71.45" gradientUnits="userSpaceOnUse"><stop offset="0" stop-color="#00aee5"/><stop offset="0.25" stop-color="#1391ce"/><stop offset="0.55" stop-color="#2774b8"/><stop offset="0.81" stop-color="#3362aa"/><stop offset="1" stop-color="#375ca5"/></linearGradient><linearGradient id="linear-gradient-5" x1="16.23" y1="54.27" x2="-15.49" y2="82.32" gradientUnits="userSpaceOnUse"><stop offset="0" stop-color="#00aee5"/><stop offset="0.22" stop-color="#08a2dc"/><stop offset="0.61" stop-color="#1e82c3"/><stop offset="1" stop-color="#375ca5"/></linearGradient><linearGradient id="linear-gradient-6" x1="10.38" y1="59.81" x2="-5.54" y2="73.89" gradientUnits="userSpaceOnUse"><stop offset="0" stop-color="#00aee5"/><stop offset="0.07" stop-color="#07a4dd"/><stop offset="0.32" stop-color="#1c85c5"/><stop offset="0.56" stop-color="#2b6eb3"/><stop offset="0.79" stop-color="#3461a9"/><stop offset="1" stop-color="#375ca5"/></linearGradient></defs><title>Asset 2</title><g id="Layer_2" data-name="Layer 2"><g id="Layer_1-2" data-name="Layer 1"><path class="cls-1" d="M23.06,11.53V17.3a5.66,5.66,0,0,0-.51-2.37A5.74,5.74,0,0,0,17,11.54a5.86,5.86,0,0,0-5.44,5.91V48.58a5.77,5.77,0,0,1-5.77,5.77h0A5.76,5.76,0,0,1,0,48.58V17.3a17,17,0,0,1,1-5.77A17.35,17.35,0,0,1,14.12.29,11.53,11.53,0,0,1,23.06,11.53Z"/><path class="cls-2" d="M51.89,0a5.77,5.77,0,0,1,5.77,5.76V51.89a16.72,16.72,0,0,1-.3,3.18A17.22,17.22,0,0,1,47.1,67.82c-.32.14-.65.26-1,.38a17.82,17.82,0,0,1-1.93.56l-.66.13a11.15,11.15,0,0,1-1.93-.62,11.53,11.53,0,0,1-7-10.61V51.89a5.66,5.66,0,0,0,.51,2.37,5.78,5.78,0,0,0,5.26,3.4h0a5.77,5.77,0,0,0,5.77-5.77V5.76A5.76,5.76,0,0,1,51.89,0Z"/><path class="cls-3" d="M43.54,68.89a16.72,16.72,0,0,1-3.18.3,17.3,17.3,0,0,1-17.3-17.3V11.53A11.53,11.53,0,0,0,14.12.29,17.49,17.49,0,0,1,17.3,0a17.07,17.07,0,0,1,4.49.59,11.53,11.53,0,0,1,7,10.62V51.57A17.26,17.26,0,0,0,40.36,67.88c.41.14.82.27,1.25.39A11.15,11.15,0,0,0,43.54,68.89Z"/><path class="cls-4" d="M41.61,68.27c-.43-.12-.84-.25-1.25-.39A17.26,17.26,0,0,1,28.83,51.57V11.21a11.53,11.53,0,0,0-7-10.62c.43.12.86.25,1.27.39A17.26,17.26,0,0,1,34.59,17.3V57.66A11.53,11.53,0,0,0,41.61,68.27Z"/><path class="cls-5" d="M10.29,67.13a5.76,5.76,0,1,1-5.88-9.28,5.76,5.76,0,0,0,4.42,9.47A5.47,5.47,0,0,0,10.29,67.13Z"/><path class="cls-6" d="M11.64,63.42a5.74,5.74,0,0,1-1.35,3.71,5.47,5.47,0,0,1-1.46.19,5.76,5.76,0,0,1-4.42-9.47,5.49,5.49,0,0,1,1.47-.19A5.76,5.76,0,0,1,11.64,63.42Z"/><path class="cls-7" d="M87.4,34.33,74.84,21.13V34.9h-3.9V16.58a3,3,0,0,1,.55-1.92A1.84,1.84,0,0,1,73,14a2.32,2.32,0,0,1,1.66.83l12.55,13V14h3.93V32.54a3.06,3.06,0,0,1-.56,1.93,1.83,1.83,0,0,1-1.49.71A2.28,2.28,0,0,1,87.4,34.33Z"/><path class="cls-7" d="M98.42,34.9H94.31V14.22h4.11Z"/><path class="cls-7" d="M129.36,34.9H125.3l-3.14-13.06L117,33.53A2.3,2.3,0,0,1,115,35.18a2.26,2.26,0,0,1-2.08-1.65l-5.1-11.69L104.67,34.9h-4l4.69-19.15a2,2,0,0,1,2-1.79,2.17,2.17,0,0,1,2,1.48l5.7,13.14,5.7-13.14A2.08,2.08,0,0,1,122.74,14c1,0,1.65.6,2,1.79Z"/><path class="cls-7" d="M147,25.77V14.22h4V25.77q0,4.86-2.47,7.14t-8.06,2.27q-5.57,0-8-2.27t-2.48-7.14V14.22h4.25V25.77c0,1.86.46,3.16,1.38,3.92s2.6,1.14,5,1.14,4.07-.38,5-1.14S147,27.63,147,25.77Z"/><path class="cls-7" d="M168.24,34.9H153.76V30.46h14.48a2.39,2.39,0,0,0,1.71-.57,2,2,0,0,0,.61-1.56,2.08,2.08,0,0,0-.61-1.62,2.39,2.39,0,0,0-1.71-.57h-8.68a6,6,0,0,1-4.44-1.65,5.81,5.81,0,0,1-1.65-4.3,5.93,5.93,0,0,1,1.62-4.31,6,6,0,0,1,4.52-1.66h13.88v4.44H159.61a1.81,1.81,0,0,0-1.37.52,2.06,2.06,0,0,0-.5,1.47,2.05,2.05,0,0,0,.5,1.46,1.81,1.81,0,0,0,1.37.53h8.63q6.19,0,6.2,6.06a6.32,6.32,0,0,1-1.6,4.49A6,6,0,0,1,168.24,34.9Z"/><path class="cls-7" d="M190.71,34.9H186a8.72,8.72,0,0,1-6.78-3,10.92,10.92,0,0,1-2.69-7.54A10.18,10.18,0,0,1,179.16,17a9,9,0,0,1,6.8-2.8h4.75a9.07,9.07,0,0,1,6.9,2.81,10.28,10.28,0,0,1,2.65,7.31,10.84,10.84,0,0,1-2.71,7.54A8.79,8.79,0,0,1,190.71,34.9ZM186,30.46h4.75a5.06,5.06,0,0,0,3.9-1.66,6,6,0,0,0,1.53-4.23,6.07,6.07,0,0,0-1.51-4.25,5.07,5.07,0,0,0-3.92-1.66H186a5,5,0,0,0-3.84,1.66,6.07,6.07,0,0,0-1.51,4.25,6,6,0,0,0,1.51,4.23A5,5,0,0,0,186,30.46Z"/><path class="cls-7" d="M206.8,34.9h-4.09V14.22h16.54v4.44H206.8Zm11.66-8.22H209.2V22.92h9.26Z"/><path class="cls-7" d="M232.41,34.9h-4.12V18.66h-7V14.22h18.2v4.44h-7Z"/><path class="cls-8" d="M75.59,55.93H73.76V46.59h-4v-2h9.79v2h-4Z"/><path class="cls-8" d="M90.17,55.93H80.79V44.62h9.36v2H82.61V54h7.56ZM89.76,51H84V49.35h5.81Z"/><path class="cls-8" d="M102.21,55.93H96.53a4.63,4.63,0,0,1-3.64-1.65,6,6,0,0,1-1.45-4.12,5.61,5.61,0,0,1,1.43-4,4.81,4.81,0,0,1,3.66-1.53h5.68v2H96.53a3,3,0,0,0-2.34,1,3.82,3.82,0,0,0-.92,2.63,3.93,3.93,0,0,0,.92,2.66A3,3,0,0,0,96.53,54h5.68Z"/><path class="cls-8" d="M105.53,56H103.7V44.62h1.83ZM114,56h-1.83V51.06h-5.28V49.3h5.28V44.62H114Z"/><path class="cls-8" d="M124.87,55.65l-7.37-8v8.28h-1.75V45.66a1.33,1.33,0,0,1,.25-.86.85.85,0,0,1,.69-.32,1.07,1.07,0,0,1,.78.4l7.4,7.92V44.53h1.75V54.89a1.34,1.34,0,0,1-.26.86.77.77,0,0,1-.65.32A1.14,1.14,0,0,1,124.87,55.65Z"/><path class="cls-8" d="M135.73,55.93h-2.55a4.63,4.63,0,0,1-3.64-1.65,6,6,0,0,1-1.45-4.12,5.66,5.66,0,0,1,1.43-4,4.81,4.81,0,0,1,3.66-1.53h2.55a4.81,4.81,0,0,1,3.71,1.54,5.66,5.66,0,0,1,1.43,4,6,6,0,0,1-1.46,4.12A4.68,4.68,0,0,1,135.73,55.93Zm-2.55-2h2.55a3,3,0,0,0,2.38-1.05,3.89,3.89,0,0,0,.93-2.66,3.77,3.77,0,0,0-.93-2.63,3.08,3.08,0,0,0-2.38-1h-2.55a3,3,0,0,0-2.34,1,3.82,3.82,0,0,0-.92,2.63,3.93,3.93,0,0,0,.92,2.66A3,3,0,0,0,133.18,54Z"/><path class="cls-8" d="M151.25,55.93h-8.89V44.62h1.83V54h7.06Z"/><path class="cls-8" d="M161.56,54.35a5.2,5.2,0,0,1-7.73,0,6,6,0,0,1-1.57-4.19,5.65,5.65,0,0,1,1.55-4.08,5.49,5.49,0,0,1,7.76,0,5.61,5.61,0,0,1,1.57,4.07A6,6,0,0,1,161.56,54.35ZM160.33,53a4,4,0,0,0,1-2.76,3.89,3.89,0,0,0-1-2.73,3.84,3.84,0,0,0-5.28,0,3.89,3.89,0,0,0-1,2.73,4,4,0,0,0,1,2.76,3.74,3.74,0,0,0,5.28,0Z"/><path class="cls-8" d="M175.78,55.93h-6.34a4.63,4.63,0,0,1-3.64-1.65,6,6,0,0,1-1.45-4.12,5.66,5.66,0,0,1,1.43-4,4.81,4.81,0,0,1,3.66-1.53h5.69v2h-5.69a3,3,0,0,0-2.34,1,3.82,3.82,0,0,0-.92,2.63,3.93,3.93,0,0,0,.92,2.66A3,3,0,0,0,169.44,54h4.49V51H169.2V49.35h6.58Z"/><path class="cls-8" d="M179.4,55.93h-1.84V44.62h1.84Z"/><path class="cls-8" d="M190.7,55.93h-9.38V44.62h9.36v2h-7.55V54h7.57ZM190.29,51h-5.81V49.35h5.81Z"/><path class="cls-8" d="M200.13,55.93h-7.86V54h7.86a1.54,1.54,0,0,0,1.13-.41,1.45,1.45,0,0,0,.4-1.07q0-1.47-1.53-1.47h-4.82a3.1,3.1,0,0,1-2.33-.9,3.19,3.19,0,0,1-.87-2.32,3,3,0,0,1,3.23-3.17h7.53v2h-7.53a1.26,1.26,0,0,0-1,.38,1.39,1.39,0,0,0-.36,1,1.35,1.35,0,0,0,.36,1,1.24,1.24,0,0,0,1,.37h4.8c2.18,0,3.26,1.09,3.26,3.27a3.45,3.45,0,0,1-.83,2.4A3.13,3.13,0,0,1,200.13,55.93Z"/><path class="cls-8" d="M218.1,55.93h-8.89V44.62H211V54h7.06Z"/><path class="cls-8" d="M223,55.93h-1.83V46.59h-4v-2H227v2h-4Z"/><path class="cls-8" d="M234.26,55.93h-6.08V44.62h6.08a4.8,4.8,0,0,1,3.67,1.55,5.62,5.62,0,0,1,1.44,4,6,6,0,0,1-1.45,4.12A4.67,4.67,0,0,1,234.26,55.93ZM230,54h4.26a3,3,0,0,0,2.34-1.05,3.89,3.89,0,0,0,.93-2.66,3.77,3.77,0,0,0-.93-2.63,3,3,0,0,0-2.34-1H230Z"/><path class="cls-8" d="M241.89,54.24a1.09,1.09,0,0,1,.29.76,1.05,1.05,0,0,1-.29.75,1,1,0,0,1-.71.31.91.91,0,0,1-.68-.31,1,1,0,0,1-.28-.75,1.08,1.08,0,0,1,.28-.76.9.9,0,0,1,.68-.3A.94.94,0,0,1,241.89,54.24Z"/></g></g></svg>